<mxfile host="app.diagrams.net" agent="Mozilla/5.0 (Windows NT 10.0; Win64; x64) AppleWebKit/537.36 (KHTML, like Gecko) Chrome/129.0.0.0 Safari/537.36" version="24.7.13">
  <diagram name="Page-1" id="bRK_roS83KE9Srz13DPP">
    <mxGraphModel dx="2924" dy="1132" grid="1" gridSize="10" guides="1" tooltips="1" connect="1" arrows="0" fold="1" page="1" pageScale="1" pageWidth="850" pageHeight="1100" math="0" shadow="0">
      <root>
        <mxCell id="0" />
        <mxCell id="1" parent="0" />
        <mxCell id="4XSniNDbrdwt6QqcC4hb-1" value="MovieQueryFormComponent.js" style="shape=umlLifeline;perimeter=lifelinePerimeter;whiteSpace=wrap;html=1;container=1;dropTarget=0;collapsible=0;recursiveResize=0;outlineConnect=0;portConstraint=eastwest;newEdgeStyle={&quot;edgeStyle&quot;:&quot;elbowEdgeStyle&quot;,&quot;elbow&quot;:&quot;vertical&quot;,&quot;curved&quot;:0,&quot;rounded&quot;:0};fillColor=#FF6666;" parent="1" vertex="1">
          <mxGeometry x="-240" y="80" width="180" height="560" as="geometry" />
        </mxCell>
        <mxCell id="h4vc0aS4SO-YuxFq1KoK-2" value="" style="html=1;points=[[0,0,0,0,5],[0,1,0,0,-5],[1,0,0,0,5],[1,1,0,0,-5]];perimeter=orthogonalPerimeter;outlineConnect=0;targetShapes=umlLifeline;portConstraint=eastwest;newEdgeStyle={&quot;curved&quot;:0,&quot;rounded&quot;:0};fillColor=#FF6666;" vertex="1" parent="4XSniNDbrdwt6QqcC4hb-1">
          <mxGeometry x="85" y="90" width="10" height="80" as="geometry" />
        </mxCell>
        <mxCell id="4XSniNDbrdwt6QqcC4hb-3" value="FetchMovieData" style="shape=umlLifeline;perimeter=lifelinePerimeter;whiteSpace=wrap;html=1;container=1;dropTarget=0;collapsible=0;recursiveResize=0;outlineConnect=0;portConstraint=eastwest;newEdgeStyle={&quot;edgeStyle&quot;:&quot;elbowEdgeStyle&quot;,&quot;elbow&quot;:&quot;vertical&quot;,&quot;curved&quot;:0,&quot;rounded&quot;:0};fillColor=#FF6666;" parent="1" vertex="1">
          <mxGeometry x="20" y="80" width="100" height="560" as="geometry" />
        </mxCell>
        <mxCell id="h4vc0aS4SO-YuxFq1KoK-4" value="" style="html=1;points=[[0,0,0,0,5],[0,1,0,0,-5],[1,0,0,0,5],[1,1,0,0,-5]];perimeter=orthogonalPerimeter;outlineConnect=0;targetShapes=umlLifeline;portConstraint=eastwest;newEdgeStyle={&quot;curved&quot;:0,&quot;rounded&quot;:0};fillColor=#FF6666;" vertex="1" parent="4XSniNDbrdwt6QqcC4hb-3">
          <mxGeometry x="45" y="120" width="10" height="80" as="geometry" />
        </mxCell>
        <mxCell id="h4vc0aS4SO-YuxFq1KoK-18" value="" style="html=1;points=[[0,0,0,0,5],[0,1,0,0,-5],[1,0,0,0,5],[1,1,0,0,-5]];perimeter=orthogonalPerimeter;outlineConnect=0;targetShapes=umlLifeline;portConstraint=eastwest;newEdgeStyle={&quot;curved&quot;:0,&quot;rounded&quot;:0};fillColor=#FF6666;" vertex="1" parent="4XSniNDbrdwt6QqcC4hb-3">
          <mxGeometry x="45" y="410" width="10" height="70" as="geometry" />
        </mxCell>
        <mxCell id="4XSniNDbrdwt6QqcC4hb-4" value="Python Flask Backend" style="shape=umlLifeline;perimeter=lifelinePerimeter;whiteSpace=wrap;html=1;container=1;dropTarget=0;collapsible=0;recursiveResize=0;outlineConnect=0;portConstraint=eastwest;newEdgeStyle={&quot;edgeStyle&quot;:&quot;elbowEdgeStyle&quot;,&quot;elbow&quot;:&quot;vertical&quot;,&quot;curved&quot;:0,&quot;rounded&quot;:0};fillColor=#dae8fc;strokeColor=#6c8ebf;" parent="1" vertex="1">
          <mxGeometry x="280" y="80" width="100" height="560" as="geometry" />
        </mxCell>
        <mxCell id="h4vc0aS4SO-YuxFq1KoK-6" value="" style="html=1;points=[[0,0,0,0,5],[0,1,0,0,-5],[1,0,0,0,5],[1,1,0,0,-5]];perimeter=orthogonalPerimeter;outlineConnect=0;targetShapes=umlLifeline;portConstraint=eastwest;newEdgeStyle={&quot;curved&quot;:0,&quot;rounded&quot;:0};fillColor=#dae8fc;strokeColor=#6c8ebf;" vertex="1" parent="4XSniNDbrdwt6QqcC4hb-4">
          <mxGeometry x="45" y="150" width="10" height="70" as="geometry" />
        </mxCell>
        <mxCell id="h4vc0aS4SO-YuxFq1KoK-10" value="" style="html=1;points=[[0,0,0,0,5],[0,1,0,0,-5],[1,0,0,0,5],[1,1,0,0,-5]];perimeter=orthogonalPerimeter;outlineConnect=0;targetShapes=umlLifeline;portConstraint=eastwest;newEdgeStyle={&quot;curved&quot;:0,&quot;rounded&quot;:0};fillColor=#dae8fc;strokeColor=#6c8ebf;" vertex="1" parent="4XSniNDbrdwt6QqcC4hb-4">
          <mxGeometry x="45" y="240" width="10" height="50" as="geometry" />
        </mxCell>
        <mxCell id="h4vc0aS4SO-YuxFq1KoK-11" value="getData() (REST API request recieved)" style="html=1;align=left;spacingLeft=2;endArrow=block;rounded=0;edgeStyle=orthogonalEdgeStyle;curved=0;rounded=0;" edge="1" target="h4vc0aS4SO-YuxFq1KoK-10" parent="4XSniNDbrdwt6QqcC4hb-4">
          <mxGeometry relative="1" as="geometry">
            <mxPoint x="50" y="200" as="sourcePoint" />
            <Array as="points">
              <mxPoint x="50" y="200" />
              <mxPoint x="80" y="200" />
              <mxPoint x="80" y="250" />
            </Array>
          </mxGeometry>
        </mxCell>
        <mxCell id="h4vc0aS4SO-YuxFq1KoK-12" value="" style="html=1;points=[[0,0,0,0,5],[0,1,0,0,-5],[1,0,0,0,5],[1,1,0,0,-5]];perimeter=orthogonalPerimeter;outlineConnect=0;targetShapes=umlLifeline;portConstraint=eastwest;newEdgeStyle={&quot;curved&quot;:0,&quot;rounded&quot;:0};fillColor=#dae8fc;strokeColor=#6c8ebf;" vertex="1" parent="4XSniNDbrdwt6QqcC4hb-4">
          <mxGeometry x="45" y="320" width="10" height="130" as="geometry" />
        </mxCell>
        <mxCell id="h4vc0aS4SO-YuxFq1KoK-13" value="queryDataBase()" style="html=1;align=left;spacingLeft=2;endArrow=block;rounded=0;edgeStyle=orthogonalEdgeStyle;curved=0;rounded=0;" edge="1" target="h4vc0aS4SO-YuxFq1KoK-12" parent="4XSniNDbrdwt6QqcC4hb-4" source="h4vc0aS4SO-YuxFq1KoK-10">
          <mxGeometry relative="1" as="geometry">
            <mxPoint x="110" y="300" as="sourcePoint" />
            <Array as="points">
              <mxPoint x="80" y="265" />
              <mxPoint x="80" y="330" />
            </Array>
          </mxGeometry>
        </mxCell>
        <mxCell id="4XSniNDbrdwt6QqcC4hb-5" value="SqliteDatabase" style="shape=umlLifeline;perimeter=lifelinePerimeter;whiteSpace=wrap;html=1;container=1;dropTarget=0;collapsible=0;recursiveResize=0;outlineConnect=0;portConstraint=eastwest;newEdgeStyle={&quot;edgeStyle&quot;:&quot;elbowEdgeStyle&quot;,&quot;elbow&quot;:&quot;vertical&quot;,&quot;curved&quot;:0,&quot;rounded&quot;:0};fillColor=#d5e8d4;strokeColor=#82b366;" parent="1" vertex="1">
          <mxGeometry x="600" y="80" width="100" height="560" as="geometry" />
        </mxCell>
        <mxCell id="h4vc0aS4SO-YuxFq1KoK-14" value="" style="html=1;points=[[0,0,0,0,5],[0,1,0,0,-5],[1,0,0,0,5],[1,1,0,0,-5]];perimeter=orthogonalPerimeter;outlineConnect=0;targetShapes=umlLifeline;portConstraint=eastwest;newEdgeStyle={&quot;curved&quot;:0,&quot;rounded&quot;:0};fillColor=#d5e8d4;strokeColor=#82b366;" vertex="1" parent="4XSniNDbrdwt6QqcC4hb-5">
          <mxGeometry x="45" y="340" width="10" height="80" as="geometry" />
        </mxCell>
        <mxCell id="h4vc0aS4SO-YuxFq1KoK-1" value="Actor" style="shape=umlActor;verticalLabelPosition=bottom;verticalAlign=top;html=1;outlineConnect=0;" vertex="1" parent="1">
          <mxGeometry x="-400" y="160" width="30" height="60" as="geometry" />
        </mxCell>
        <mxCell id="h4vc0aS4SO-YuxFq1KoK-3" value="onGenerateButtonPressed" style="html=1;verticalAlign=bottom;startArrow=oval;startFill=1;endArrow=block;startSize=8;curved=0;rounded=0;" edge="1" parent="1" target="4XSniNDbrdwt6QqcC4hb-1">
          <mxGeometry width="60" relative="1" as="geometry">
            <mxPoint x="-360" y="200" as="sourcePoint" />
            <mxPoint x="-300" y="200" as="targetPoint" />
          </mxGeometry>
        </mxCell>
        <mxCell id="h4vc0aS4SO-YuxFq1KoK-5" value="fetchMovieData()" style="html=1;verticalAlign=bottom;startArrow=oval;startFill=1;endArrow=block;startSize=8;curved=0;rounded=0;" edge="1" parent="1">
          <mxGeometry width="60" relative="1" as="geometry">
            <mxPoint x="-140" y="240" as="sourcePoint" />
            <mxPoint x="70" y="240" as="targetPoint" />
          </mxGeometry>
        </mxCell>
        <mxCell id="h4vc0aS4SO-YuxFq1KoK-8" value="fetch()" style="html=1;verticalAlign=bottom;startArrow=oval;startFill=1;endArrow=block;startSize=8;curved=0;rounded=0;" edge="1" parent="1" target="4XSniNDbrdwt6QqcC4hb-4">
          <mxGeometry width="60" relative="1" as="geometry">
            <mxPoint x="70" y="260" as="sourcePoint" />
            <mxPoint x="280" y="260" as="targetPoint" />
          </mxGeometry>
        </mxCell>
        <mxCell id="h4vc0aS4SO-YuxFq1KoK-9" value="Note: Asynch fetch call that calls the api/getData function" style="text;html=1;align=center;verticalAlign=middle;whiteSpace=wrap;rounded=0;" vertex="1" parent="1">
          <mxGeometry x="80" y="280" width="190" height="30" as="geometry" />
        </mxCell>
        <mxCell id="h4vc0aS4SO-YuxFq1KoK-15" value="" style="endArrow=classic;html=1;rounded=0;" edge="1" parent="1">
          <mxGeometry width="50" height="50" relative="1" as="geometry">
            <mxPoint x="335" y="450" as="sourcePoint" />
            <mxPoint x="649.5" y="450" as="targetPoint" />
          </mxGeometry>
        </mxCell>
        <mxCell id="h4vc0aS4SO-YuxFq1KoK-16" value="GetData()" style="edgeLabel;html=1;align=center;verticalAlign=middle;resizable=0;points=[];" vertex="1" connectable="0" parent="h4vc0aS4SO-YuxFq1KoK-15">
          <mxGeometry x="-0.2475" y="2" relative="1" as="geometry">
            <mxPoint x="-83" y="-8" as="offset" />
          </mxGeometry>
        </mxCell>
        <mxCell id="h4vc0aS4SO-YuxFq1KoK-17" value="return" style="html=1;verticalAlign=bottom;endArrow=open;dashed=1;endSize=8;curved=0;rounded=0;" edge="1" parent="1" target="h4vc0aS4SO-YuxFq1KoK-12">
          <mxGeometry relative="1" as="geometry">
            <mxPoint x="650" y="480" as="sourcePoint" />
            <mxPoint x="570" y="480" as="targetPoint" />
          </mxGeometry>
        </mxCell>
        <mxCell id="h4vc0aS4SO-YuxFq1KoK-19" value="return" style="html=1;verticalAlign=bottom;endArrow=open;dashed=1;endSize=8;curved=0;rounded=0;" edge="1" parent="1" target="h4vc0aS4SO-YuxFq1KoK-18">
          <mxGeometry relative="1" as="geometry">
            <mxPoint x="325" y="510" as="sourcePoint" />
            <mxPoint x="10" y="510" as="targetPoint" />
          </mxGeometry>
        </mxCell>
        <mxCell id="h4vc0aS4SO-YuxFq1KoK-20" value="" style="html=1;points=[[0,0,0,0,5],[0,1,0,0,-5],[1,0,0,0,5],[1,1,0,0,-5]];perimeter=orthogonalPerimeter;outlineConnect=0;targetShapes=umlLifeline;portConstraint=eastwest;newEdgeStyle={&quot;curved&quot;:0,&quot;rounded&quot;:0};fillColor=#FF6666;" vertex="1" parent="1">
          <mxGeometry x="-155" y="500" width="10" height="80" as="geometry" />
        </mxCell>
        <mxCell id="h4vc0aS4SO-YuxFq1KoK-21" value="return" style="html=1;verticalAlign=bottom;endArrow=open;dashed=1;endSize=8;curved=0;rounded=0;" edge="1" parent="1">
          <mxGeometry relative="1" as="geometry">
            <mxPoint x="70" y="539.58" as="sourcePoint" />
            <mxPoint x="-150" y="540" as="targetPoint" />
          </mxGeometry>
        </mxCell>
        <mxCell id="h4vc0aS4SO-YuxFq1KoK-22" value="data returned to user&amp;nbsp;&lt;div&gt;in formContainer.html&lt;/div&gt;" style="html=1;verticalAlign=bottom;endArrow=open;dashed=1;endSize=8;curved=0;rounded=0;" edge="1" parent="1">
          <mxGeometry relative="1" as="geometry">
            <mxPoint x="-150" y="560" as="sourcePoint" />
            <mxPoint x="-360" y="560" as="targetPoint" />
          </mxGeometry>
        </mxCell>
        <mxCell id="h4vc0aS4SO-YuxFq1KoK-23" value="Actor" style="shape=umlActor;verticalLabelPosition=bottom;verticalAlign=top;html=1;outlineConnect=0;" vertex="1" parent="1">
          <mxGeometry x="-400" y="540" width="30" height="60" as="geometry" />
        </mxCell>
      </root>
    </mxGraphModel>
  </diagram>
</mxfile>
